<svg xmlns="http://www.w3.org/2000/svg" xmlns:xlink="http://www.w3.org/1999/xlink" width="500" zoomAndPan="magnify" viewBox="0 0 375 374.999991" height="500" preserveAspectRatio="xMidYMid meet" version="1.0"><defs><clipPath id="f94e014567"><path d="M 48.84375 89.1875 L 177 89.1875 L 177 285.6875 L 48.84375 285.6875 Z M 48.84375 89.1875 " clip-rule="nonzero"/></clipPath><clipPath id="bde70c15fe"><path d="M 198 89.1875 L 326.34375 89.1875 L 326.34375 285.6875 L 198 285.6875 Z M 198 89.1875 " clip-rule="nonzero"/></clipPath></defs><g clip-path="url(#f94e014567)"><path fill="#003fad" d="M 118.402344 277.234375 C 118.410156 277.144531 107.066406 277.121094 106.046875 277.121094 L 57.386719 277.121094 C 57.328125 277.121094 57.429688 277.320312 57.429688 277.117188 L 57.429688 101.953125 C 57.429688 101.335938 57.519531 97.738281 57.359375 97.738281 L 167.3125 97.738281 C 168.671875 97.738281 167.953125 97.777344 168.273438 96.609375 C 167.667969 98.789062 167.066406 100.96875 166.460938 103.148438 C 158.253906 132.777344 150.046875 162.40625 141.839844 192.035156 C 134.328125 219.144531 126.820312 246.25 119.308594 273.367188 C 119.054688 274.277344 118.804688 275.1875 118.550781 276.097656 C 117.085938 281.394531 125.292969 283.640625 126.757812 278.363281 C 132.726562 256.792969 138.707031 235.234375 144.675781 213.671875 C 153.738281 180.953125 162.800781 148.238281 171.859375 115.519531 C 173.054688 111.222656 174.246094 106.921875 175.4375 102.621094 C 176.394531 99.15625 177.523438 96.238281 175.101562 92.8125 C 172.070312 88.523438 166.9375 89.230469 162.386719 89.230469 C 155.910156 89.230469 149.429688 89.230469 142.953125 89.230469 L 57.359375 89.230469 C 52.703125 89.230469 48.925781 93.121094 48.925781 97.746094 C 48.925781 98.484375 48.925781 99.21875 48.925781 99.957031 L 48.925781 272.90625 C 48.925781 276.042969 48.5625 279.335938 50.480469 282.046875 C 53.980469 287 61.8125 285.625 67.097656 285.625 L 118.175781 285.625 C 123.171875 285.625 126.480469 282.023438 126.910156 277.234375 C 127.398438 271.765625 118.886719 271.8125 118.402344 277.234375 " fill-opacity="1" fill-rule="nonzero"/></g><g clip-path="url(#bde70c15fe)"><path fill="#003fad" d="M 267.949219 277.234375 C 267.957031 277.144531 256.613281 277.121094 255.597656 277.121094 L 206.933594 277.121094 C 206.878906 277.121094 206.980469 277.320312 206.980469 277.117188 L 206.980469 101.953125 C 206.980469 101.335938 207.066406 97.738281 206.90625 97.738281 L 316.859375 97.738281 C 318.21875 97.738281 317.5 97.777344 317.820312 96.609375 C 317.214844 98.789062 316.613281 100.96875 316.007812 103.148438 C 307.800781 132.777344 299.59375 162.40625 291.386719 192.035156 C 283.878906 219.144531 276.371094 246.25 268.855469 273.367188 C 268.609375 274.277344 268.351562 275.1875 268.101562 276.097656 C 266.632812 281.394531 274.839844 283.640625 276.304688 278.363281 C 282.273438 256.792969 288.246094 235.234375 294.222656 213.671875 C 303.285156 180.953125 312.347656 148.238281 321.410156 115.519531 C 322.601562 111.222656 323.792969 106.921875 324.984375 102.621094 C 325.941406 99.15625 327.070312 96.238281 324.648438 92.8125 C 321.617188 88.523438 316.484375 89.230469 311.933594 89.230469 C 305.457031 89.230469 298.980469 89.230469 292.5 89.230469 L 206.90625 89.230469 C 202.25 89.230469 198.472656 93.121094 198.472656 97.746094 L 198.472656 272.90625 C 198.472656 276.035156 198.109375 279.335938 200.027344 282.046875 C 203.527344 287 211.363281 285.625 216.644531 285.625 L 267.722656 285.625 C 272.71875 285.625 276.027344 282.023438 276.457031 277.234375 C 276.945312 271.765625 268.4375 271.8125 267.949219 277.234375 " fill-opacity="1" fill-rule="nonzero"/></g></svg>