<svg xmlns="http://www.w3.org/2000/svg" xmlns:xlink="http://www.w3.org/1999/xlink" width="500" zoomAndPan="magnify" viewBox="0 0 375 374.999991" height="500" preserveAspectRatio="xMidYMid meet" version="1.0"><defs><clipPath id="6d412edbaf"><path d="M 44.894531 44.894531 L 330.105469 44.894531 L 330.105469 330.105469 L 44.894531 330.105469 Z M 44.894531 44.894531 " clip-rule="nonzero"/></clipPath><clipPath id="d86c349214"><path d="M 187.5 44.894531 C 108.742188 44.894531 44.894531 108.742188 44.894531 187.5 C 44.894531 266.257812 108.742188 330.105469 187.5 330.105469 C 266.257812 330.105469 330.105469 266.257812 330.105469 187.5 C 330.105469 108.742188 266.257812 44.894531 187.5 44.894531 Z M 187.5 44.894531 " clip-rule="nonzero"/></clipPath><clipPath id="b7002aa977"><path d="M 86.507812 86.507812 L 288.183594 86.507812 L 288.183594 288.183594 L 86.507812 288.183594 Z M 86.507812 86.507812 " clip-rule="nonzero"/></clipPath></defs><g clip-path="url(#6d412edbaf)"><g clip-path="url(#d86c349214)"><path fill="#ffffff" d="M 44.894531 44.894531 L 330.105469 44.894531 L 330.105469 330.105469 L 44.894531 330.105469 Z M 44.894531 44.894531 " fill-opacity="1" fill-rule="nonzero"/></g></g><g clip-path="url(#b7002aa977)"><path fill="#030307" d="M 131.914062 86.507812 L 242.832031 86.507812 C 255.367188 86.507812 266.71875 91.59375 274.996094 99.871094 C 283.15625 108.027344 288.359375 119.5 288.359375 131.914062 L 288.359375 242.832031 C 288.359375 255.367188 283.15625 266.71875 274.996094 274.996094 C 266.71875 283.15625 255.367188 288.359375 242.832031 288.359375 L 131.914062 288.359375 C 119.5 288.359375 108.027344 283.15625 99.871094 274.996094 C 91.59375 266.71875 86.507812 255.367188 86.507812 242.832031 L 86.507812 131.914062 C 86.507812 119.5 91.59375 108.027344 99.871094 99.871094 C 108.027344 91.59375 119.5 86.507812 131.914062 86.507812 Z M 242.832031 104.480469 L 131.914062 104.480469 C 124.347656 104.480469 117.488281 107.554688 112.523438 112.523438 C 107.554688 117.488281 104.480469 124.347656 104.480469 131.914062 L 104.480469 242.832031 C 104.480469 250.402344 107.554688 257.257812 112.523438 262.226562 C 117.488281 267.3125 124.347656 270.386719 131.914062 270.386719 L 242.832031 270.386719 C 250.402344 270.386719 257.257812 267.3125 262.226562 262.226562 C 267.3125 257.257812 270.386719 250.402344 270.386719 242.832031 L 270.386719 131.914062 C 270.386719 124.347656 267.3125 117.488281 262.226562 112.523438 C 257.257812 107.554688 250.402344 104.480469 242.832031 104.480469 Z M 242.832031 104.480469 " fill-opacity="1" fill-rule="nonzero"/></g><path fill="#030307" d="M 244.015625 121.746094 C 246.5 121.746094 248.863281 122.691406 250.402344 124.347656 C 252.054688 126.003906 253.121094 128.25 253.121094 130.734375 C 253.121094 133.214844 252.054688 135.582031 250.402344 137.117188 C 248.863281 138.773438 246.5 139.839844 244.015625 139.839844 C 241.53125 139.839844 239.285156 138.773438 237.628906 137.117188 C 235.976562 135.582031 235.027344 133.214844 235.027344 130.734375 C 235.027344 128.25 235.976562 126.003906 237.628906 124.347656 C 239.285156 122.691406 241.53125 121.746094 244.015625 121.746094 Z M 244.015625 121.746094 " fill-opacity="1" fill-rule="nonzero"/><path fill="#030307" d="M 187.375 138.417969 C 200.972656 138.417969 213.152344 143.976562 222.019531 152.726562 C 230.890625 161.597656 236.449219 173.894531 236.449219 187.375 C 236.449219 200.972656 230.890625 213.152344 222.019531 222.019531 C 213.152344 230.890625 200.972656 236.449219 187.375 236.449219 C 173.894531 236.449219 161.597656 230.890625 152.726562 222.019531 C 143.976562 213.152344 138.417969 200.972656 138.417969 187.375 C 138.417969 173.894531 143.976562 161.597656 152.726562 152.726562 C 161.597656 143.976562 173.894531 138.417969 187.375 138.417969 Z M 209.25 165.617188 C 203.691406 160.058594 195.886719 156.511719 187.375 156.511719 C 178.859375 156.511719 171.175781 160.058594 165.617188 165.617188 C 160.058594 171.175781 156.511719 178.859375 156.511719 187.375 C 156.511719 195.886719 160.058594 203.691406 165.617188 209.25 C 171.175781 214.808594 178.859375 218.238281 187.375 218.238281 C 195.886719 218.238281 203.691406 214.808594 209.25 209.25 C 214.808594 203.691406 218.238281 195.886719 218.238281 187.375 C 218.238281 178.859375 214.808594 171.175781 209.25 165.617188 Z M 209.25 165.617188 " fill-opacity="1" fill-rule="nonzero"/></svg>