<svg xmlns="http://www.w3.org/2000/svg" xmlns:xlink="http://www.w3.org/1999/xlink" width="500" zoomAndPan="magnify" viewBox="0 0 375 374.999991" height="500" preserveAspectRatio="xMidYMid meet" version="1.0"><defs><clipPath id="ad8df9e8fd"><path d="M 44.894531 44.894531 L 330.105469 44.894531 L 330.105469 330.105469 L 44.894531 330.105469 Z M 44.894531 44.894531 " clip-rule="nonzero"/></clipPath><clipPath id="d1392b06c6"><path d="M 187.5 44.894531 C 108.742188 44.894531 44.894531 108.742188 44.894531 187.5 C 44.894531 266.257812 108.742188 330.105469 187.5 330.105469 C 266.257812 330.105469 330.105469 266.257812 330.105469 187.5 C 330.105469 108.742188 266.257812 44.894531 187.5 44.894531 Z M 187.5 44.894531 " clip-rule="nonzero"/></clipPath><clipPath id="ff0dae5047"><path d="M 62.488281 62.175781 L 312.238281 62.175781 L 312.238281 312.675781 L 62.488281 312.675781 Z M 62.488281 62.175781 " clip-rule="nonzero"/></clipPath></defs><g clip-path="url(#ad8df9e8fd)"><g clip-path="url(#d1392b06c6)"><path fill="#ffffff" d="M 44.894531 44.894531 L 330.105469 44.894531 L 330.105469 330.105469 L 44.894531 330.105469 Z M 44.894531 44.894531 " fill-opacity="1" fill-rule="nonzero"/></g></g><g clip-path="url(#ff0dae5047)"><path fill="#000000" d="M 312.238281 187.386719 C 312.238281 189.433594 312.1875 191.480469 312.085938 193.523438 C 311.984375 195.566406 311.835938 197.605469 311.636719 199.640625 C 311.433594 201.675781 311.183594 203.707031 310.882812 205.730469 C 310.585938 207.753906 310.234375 209.769531 309.835938 211.773438 C 309.4375 213.78125 308.992188 215.777344 308.492188 217.761719 C 307.996094 219.746094 307.453125 221.714844 306.859375 223.671875 C 306.265625 225.632812 305.625 227.574219 304.9375 229.5 C 304.25 231.425781 303.511719 233.332031 302.730469 235.222656 C 301.949219 237.113281 301.121094 238.980469 300.246094 240.832031 C 299.375 242.679688 298.453125 244.507812 297.492188 246.3125 C 296.527344 248.117188 295.519531 249.894531 294.46875 251.652344 C 293.417969 253.40625 292.328125 255.132812 291.191406 256.835938 C 290.054688 258.535156 288.878906 260.207031 287.664062 261.851562 C 286.445312 263.492188 285.1875 265.105469 283.890625 266.6875 C 282.59375 268.269531 281.261719 269.816406 279.886719 271.332031 C 278.515625 272.847656 277.105469 274.328125 275.664062 275.777344 C 274.21875 277.222656 272.738281 278.632812 271.222656 280.007812 C 269.710938 281.382812 268.164062 282.71875 266.582031 284.015625 C 265.003906 285.3125 263.390625 286.570312 261.75 287.789062 C 260.109375 289.007812 258.4375 290.183594 256.738281 291.320312 C 255.039062 292.457031 253.3125 293.550781 251.5625 294.601562 C 249.808594 295.65625 248.03125 296.664062 246.226562 297.628906 C 244.425781 298.59375 242.601562 299.511719 240.753906 300.386719 C 238.90625 301.261719 237.039062 302.089844 235.148438 302.871094 C 233.261719 303.65625 231.355469 304.394531 229.433594 305.082031 C 227.507812 305.769531 225.566406 306.414062 223.613281 307.007812 C 221.65625 307.601562 219.6875 308.144531 217.707031 308.640625 C 215.722656 309.136719 213.730469 309.585938 211.726562 309.984375 C 209.71875 310.386719 207.707031 310.734375 205.6875 311.035156 C 203.664062 311.335938 201.636719 311.585938 199.605469 311.785156 C 197.570312 311.988281 195.53125 312.136719 193.492188 312.238281 C 191.449219 312.339844 189.40625 312.386719 187.363281 312.386719 C 185.320312 312.386719 183.277344 312.339844 181.238281 312.238281 C 179.195312 312.136719 177.15625 311.988281 175.125 311.785156 C 173.089844 311.585938 171.0625 311.335938 169.042969 311.035156 C 167.019531 310.734375 165.007812 310.386719 163.003906 309.984375 C 160.996094 309.585938 159.003906 309.140625 157.023438 308.640625 C 155.039062 308.144531 153.070312 307.601562 151.117188 307.007812 C 149.160156 306.414062 147.21875 305.769531 145.296875 305.082031 C 143.371094 304.394531 141.464844 303.65625 139.578125 302.871094 C 137.6875 302.089844 135.820312 301.261719 133.972656 300.386719 C 132.125 299.511719 130.300781 298.59375 128.5 297.628906 C 126.695312 296.664062 124.917969 295.65625 123.167969 294.605469 C 121.414062 293.550781 119.6875 292.457031 117.988281 291.320312 C 116.289062 290.183594 114.617188 289.007812 112.976562 287.789062 C 111.335938 286.570312 109.726562 285.3125 108.144531 284.015625 C 106.566406 282.71875 105.019531 281.382812 103.503906 280.007812 C 101.988281 278.632812 100.511719 277.222656 99.066406 275.777344 C 97.621094 274.328125 96.210938 272.847656 94.839844 271.332031 C 93.464844 269.816406 92.132812 268.269531 90.835938 266.6875 C 89.539062 265.105469 88.28125 263.492188 87.066406 261.851562 C 85.847656 260.207031 84.671875 258.535156 83.535156 256.835938 C 82.398438 255.132812 81.308594 253.40625 80.257812 251.652344 C 79.207031 249.894531 78.199219 248.117188 77.234375 246.3125 C 76.273438 244.507812 75.355469 242.679688 74.480469 240.832031 C 73.605469 238.980469 72.777344 237.113281 71.996094 235.222656 C 71.214844 233.332031 70.480469 231.425781 69.789062 229.5 C 69.101562 227.574219 68.460938 225.632812 67.867188 223.671875 C 67.273438 221.714844 66.730469 219.746094 66.234375 217.761719 C 65.738281 215.777344 65.289062 213.78125 64.890625 211.773438 C 64.492188 209.769531 64.140625 207.753906 63.84375 205.730469 C 63.542969 203.707031 63.292969 201.675781 63.09375 199.640625 C 62.890625 197.605469 62.742188 195.566406 62.640625 193.523438 C 62.542969 191.480469 62.492188 189.433594 62.492188 187.386719 C 62.492188 185.34375 62.542969 183.296875 62.640625 181.253906 C 62.742188 179.210938 62.890625 177.171875 63.09375 175.136719 C 63.292969 173.101562 63.542969 171.070312 63.84375 169.046875 C 64.140625 167.023438 64.492188 165.007812 64.890625 163.003906 C 65.289062 160.996094 65.738281 159 66.234375 157.015625 C 66.730469 155.03125 67.273438 153.0625 67.867188 151.101562 C 68.460938 149.144531 69.101562 147.203125 69.789062 145.277344 C 70.480469 143.351562 71.214844 141.441406 71.996094 139.550781 C 72.777344 137.660156 73.605469 135.792969 74.480469 133.945312 C 75.355469 132.09375 76.273438 130.269531 77.234375 128.464844 C 78.199219 126.660156 79.207031 124.878906 80.257812 123.125 C 81.308594 121.371094 82.398438 119.644531 83.535156 117.941406 C 84.671875 116.242188 85.847656 114.570312 87.066406 112.925781 C 88.28125 111.28125 89.539062 109.671875 90.835938 108.089844 C 92.132812 106.507812 93.464844 104.957031 94.839844 103.445312 C 96.210938 101.929688 97.621094 100.445312 99.066406 99 C 100.511719 97.554688 101.988281 96.144531 103.503906 94.769531 C 105.019531 93.394531 106.566406 92.058594 108.144531 90.761719 C 109.726562 89.464844 111.335938 88.207031 112.976562 86.988281 C 114.617188 85.769531 116.289062 84.589844 117.988281 83.453125 C 119.6875 82.316406 121.414062 81.222656 123.164062 80.171875 C 124.917969 79.121094 126.695312 78.113281 128.5 77.148438 C 130.300781 76.183594 132.125 75.265625 133.972656 74.390625 C 135.820312 73.515625 137.6875 72.6875 139.578125 71.902344 C 141.464844 71.121094 143.371094 70.382812 145.296875 69.695312 C 147.21875 69.007812 149.160156 68.363281 151.113281 67.769531 C 153.070312 67.179688 155.039062 66.632812 157.023438 66.136719 C 159.003906 65.636719 160.996094 65.191406 163.003906 64.792969 C 165.007812 64.390625 167.019531 64.042969 169.039062 63.742188 C 171.0625 63.441406 173.089844 63.191406 175.125 62.992188 C 177.15625 62.792969 179.195312 62.640625 181.238281 62.539062 C 183.277344 62.441406 185.320312 62.390625 187.363281 62.390625 C 189.40625 62.390625 191.449219 62.441406 193.492188 62.539062 C 195.53125 62.640625 197.570312 62.792969 199.605469 62.992188 C 201.636719 63.191406 203.664062 63.441406 205.6875 63.742188 C 207.707031 64.042969 209.71875 64.390625 211.726562 64.789062 C 213.730469 65.1875 215.722656 65.636719 217.703125 66.136719 C 219.6875 66.632812 221.65625 67.175781 223.613281 67.769531 C 225.566406 68.363281 227.507812 69.007812 229.429688 69.695312 C 231.355469 70.382812 233.261719 71.121094 235.148438 71.902344 C 237.039062 72.6875 238.90625 73.515625 240.753906 74.390625 C 242.601562 75.265625 244.425781 76.183594 246.226562 77.148438 C 248.03125 78.113281 249.808594 79.121094 251.5625 80.171875 C 253.3125 81.222656 255.039062 82.316406 256.738281 83.453125 C 258.4375 84.589844 260.109375 85.769531 261.75 86.988281 C 263.390625 88.207031 265.003906 89.464844 266.582031 90.761719 C 268.160156 92.058594 269.707031 93.394531 271.222656 94.769531 C 272.738281 96.140625 274.214844 97.550781 275.660156 99 C 277.105469 100.445312 278.515625 101.929688 279.886719 103.445312 C 281.261719 104.957031 282.59375 106.507812 283.890625 108.089844 C 285.1875 109.671875 286.445312 111.28125 287.664062 112.925781 C 288.878906 114.570312 290.054688 116.242188 291.191406 117.941406 C 292.328125 119.640625 293.417969 121.371094 294.46875 123.125 C 295.519531 124.878906 296.527344 126.660156 297.492188 128.464844 C 298.453125 130.265625 299.371094 132.09375 300.246094 133.945312 C 301.121094 135.792969 301.949219 137.660156 302.730469 139.550781 C 303.511719 141.441406 304.25 143.351562 304.9375 145.277344 C 305.625 147.203125 306.265625 149.144531 306.859375 151.101562 C 307.453125 153.058594 307.996094 155.03125 308.492188 157.015625 C 308.992188 159 309.4375 160.996094 309.835938 163 C 310.234375 165.007812 310.585938 167.023438 310.882812 169.046875 C 311.183594 171.070312 311.433594 173.101562 311.636719 175.136719 C 311.835938 177.171875 311.984375 179.210938 312.085938 181.253906 C 312.1875 183.296875 312.238281 185.34375 312.238281 187.386719 Z M 312.238281 187.386719 " fill-opacity="1" fill-rule="nonzero"/></g><path stroke-linecap="round" transform="matrix(0.744633, 0, 0, 0.745019, -22686.352986, -6893.298267)" fill-opacity="1" fill="#ffffff" fill-rule="evenodd" stroke-linejoin="round" d="M 30640.397399 9422.349077 L 30685.700745 9422.029245 L 30795.701424 9582.118572 L 30749.999391 9581.720092 Z M 30640.397399 9422.349077 " stroke="#ffffff" stroke-width="2.14" stroke-opacity="1" stroke-miterlimit="1.5"/><path stroke-linecap="round" transform="matrix(0.744633, 0, 0, 0.745019, -22686.352986, -6893.298267)" fill-opacity="1" fill="#ffffff" fill-rule="evenodd" stroke-linejoin="round" d="M 30776.800549 9422.029245 L 30790.901451 9422.029245 L 30653.999944 9582.118572 L 30640.397399 9582.118572 Z M 30776.800549 9422.029245 " stroke="#ffffff" stroke-width="2.14" stroke-opacity="1" stroke-miterlimit="1.5"/><path fill="#000000" d="M 143.429688 135.550781 L 159.066406 135.640625 L 231.371094 239.226562 L 215.730469 239.203125 Z M 143.429688 135.550781 " fill-opacity="1" fill-rule="evenodd"/><path fill="#000000" d="M 143.429688 135.550781 L 159.066406 135.640625 L 231.371094 239.226562 L 215.730469 239.203125 Z M 144.621094 136.183594 C 144.621094 136.183594 216.03125 238.578125 216.03125 238.578125 C 216.03125 238.578125 230.179688 238.601562 230.179688 238.601562 L 158.695312 136.265625 Z M 144.621094 136.183594 " fill-opacity="1" fill-rule="evenodd"/></svg>