<svg xmlns="http://www.w3.org/2000/svg" xmlns:xlink="http://www.w3.org/1999/xlink" width="500" zoomAndPan="magnify" viewBox="0 0 375 374.999991" height="500" preserveAspectRatio="xMidYMid meet" version="1.0"><defs><clipPath id="e3ad2c7005"><path d="M 47.773438 47.773438 L 327.523438 47.773438 L 327.523438 327.523438 L 47.773438 327.523438 Z M 47.773438 47.773438 " clip-rule="nonzero"/></clipPath></defs><g clip-path="url(#e3ad2c7005)"><path fill="#ffffff" d="M 187.496094 47.773438 C 110.316406 47.773438 47.773438 110.316406 47.773438 187.496094 C 47.773438 264.679688 110.316406 327.21875 187.496094 327.21875 C 264.679688 327.21875 327.21875 264.679688 327.21875 187.496094 C 327.101562 110.316406 264.558594 47.773438 187.496094 47.773438 Z M 267.945312 226.570312 C 266.371094 236.855469 257.417969 244.355469 247.015625 244.355469 L 127.859375 244.355469 C 117.457031 244.355469 108.503906 236.855469 106.929688 226.570312 C 105.480469 217.015625 104.027344 203.707031 103.90625 187.378906 C 104.027344 171.046875 105.359375 157.859375 106.929688 148.183594 C 108.503906 137.898438 117.457031 130.398438 127.859375 130.398438 L 247.015625 130.398438 C 257.417969 130.398438 266.371094 137.898438 267.945312 148.183594 C 269.394531 157.738281 270.847656 171.046875 270.96875 187.378906 C 270.847656 203.707031 269.394531 217.015625 267.945312 226.570312 Z M 267.945312 226.570312 " fill-opacity="1" fill-rule="nonzero"/></g><path fill="#ffffff" d="M 169.835938 164.753906 L 169.835938 210.121094 L 212.054688 187.496094 Z M 169.835938 164.753906 " fill-opacity="1" fill-rule="nonzero"/></svg>